<?xml version="1.0" encoding="UTF-8" standalone="no"?>
<!DOCTYPE svg PUBLIC "-//W3C//DTD SVG 1.1//EN"
 "http://www.w3.org/Graphics/SVG/1.1/DTD/svg11.dtd">
<!-- Generated by graphviz version 2.44.1 (20200629.0846)
 -->
<!-- Title: g Pages: 1 -->
<svg width="2637pt" height="1509pt"
 viewBox="0.00 0.00 2637.00 1509.40" xmlns="http://www.w3.org/2000/svg" xmlns:xlink="http://www.w3.org/1999/xlink">
<g id="graph0" class="graph" transform="scale(1 1) rotate(0) translate(4 1505.4)">
<title>g</title>
<polygon fill="white" stroke="transparent" points="-4,4 -4,-1505.4 2633,-1505.4 2633,4 -4,4"/>
<g id="clust4" class="cluster">
<title>cluster_310602149</title>
<polygon fill="#7ad3ad" stroke="black" points="1634,-549.4 1634,-688.2 2129,-688.2 2129,-549.4 1634,-549.4"/>
<text text-anchor="middle" x="1682.82" y="-671.6" font-family="Times New Roman,serif" font-size="14.00">FileSaveLogic</text>
</g>
<g id="clust1" class="cluster">
<title>cluster_1068799382</title>
<polygon fill="#7ad3ad" stroke="black" points="8,-8 8,-497.8 1997,-497.8 1997,-8 8,-8"/>
<text text-anchor="middle" x="36.22" y="-481.2" font-family="Times New Roman,serif" font-size="14.00">models</text>
</g>
<g id="clust2" class="cluster">
<title>cluster_1322970774</title>
<polygon fill="#7ad3ad" stroke="black" points="1664,-737.8 1664,-1493.4 2022,-1493.4 2022,-737.8 1664,-737.8"/>
<text text-anchor="middle" x="1695.71" y="-1476.8" font-family="Times New Roman,serif" font-size="14.00">example</text>
</g>
<g id="clust3" class="cluster">
<title>cluster_129515977</title>
<polygon fill="#7ad3ad" stroke="black" points="1672,-745.8 1672,-1460.6 2014,-1460.6 2014,-745.8 1672,-745.8"/>
<text text-anchor="middle" x="1694.77" y="-1444" font-family="Times New Roman,serif" font-size="14.00">task2</text>
</g>
<g id="clust5" class="cluster">
<title>cluster_572770538</title>
<polygon fill="#7ad3ad" stroke="black" points="2005,-311 2005,-401.8 2621,-401.8 2621,-311 2005,-311"/>
<text text-anchor="middle" x="2034.38" y="-385.2" font-family="Times New Roman,serif" font-size="14.00">Factory</text>
</g>
<!-- Angle1068799382 -->
<g id="node1" class="node">
<title>Angle1068799382</title>
<polygon fill="#deda61" stroke="transparent" points="282,-138 16,-138 16,-64 282,-64 282,-138"/>
<text text-anchor="start" x="21" y="-120.4" font-family="Times New Roman,serif" font-size="14.00">(C)Angle</text>
<text text-anchor="start" x="21" y="-96.4" font-family="Times New Roman,serif" font-size="14.00">+ descriptor(): String</text>
<text text-anchor="start" x="20.85" y="-72.4" font-family="Times New Roman,serif" font-size="14.00">+ draw(canvas: Canvas, gr: GraphicsContext)</text>
<polygon fill="black" stroke="black" points="16,-113 16,-113 282,-113 282,-113 16,-113"/>
<polygon fill="none" stroke="black" points="16,-64 16,-138 282,-138 282,-64 16,-64"/>
</g>
<!-- Circle1068799382 -->
<g id="node2" class="node">
<title>Circle1068799382</title>
<polygon fill="#deda61" stroke="transparent" points="566,-138 300,-138 300,-64 566,-64 566,-138"/>
<text text-anchor="start" x="305" y="-120.4" font-family="Times New Roman,serif" font-size="14.00">(C)Circle</text>
<text text-anchor="start" x="305" y="-96.4" font-family="Times New Roman,serif" font-size="14.00">+ descriptor(): String</text>
<text text-anchor="start" x="304.85" y="-72.4" font-family="Times New Roman,serif" font-size="14.00">+ draw(canvas: Canvas, gr: GraphicsContext)</text>
<polygon fill="black" stroke="black" points="300,-113 300,-113 566,-113 566,-113 300,-113"/>
<polygon fill="none" stroke="black" points="300,-64 300,-138 566,-138 566,-64 300,-64"/>
</g>
<!-- Pentagon1068799382 -->
<g id="node3" class="node">
<title>Pentagon1068799382</title>
<polygon fill="#deda61" stroke="transparent" points="850,-138 584,-138 584,-64 850,-64 850,-138"/>
<text text-anchor="start" x="589" y="-120.4" font-family="Times New Roman,serif" font-size="14.00">(C)Pentagon</text>
<text text-anchor="start" x="589" y="-96.4" font-family="Times New Roman,serif" font-size="14.00">+ descriptor(): String</text>
<text text-anchor="start" x="588.85" y="-72.4" font-family="Times New Roman,serif" font-size="14.00">+ draw(canvas: Canvas, gr: GraphicsContext)</text>
<polygon fill="black" stroke="black" points="584,-113 584,-113 850,-113 850,-113 584,-113"/>
<polygon fill="none" stroke="black" points="584,-64 584,-138 850,-138 850,-64 584,-64"/>
</g>
<!-- Rectangle1068799382 -->
<g id="node4" class="node">
<title>Rectangle1068799382</title>
<polygon fill="#deda61" stroke="transparent" points="1134,-186 868,-186 868,-16 1134,-16 1134,-186"/>
<text text-anchor="start" x="873" y="-168.4" font-family="Times New Roman,serif" font-size="14.00">(C)Rectangle</text>
<text text-anchor="start" x="873" y="-144.4" font-family="Times New Roman,serif" font-size="14.00"># &#160;&#160;length: double [1]</text>
<text text-anchor="start" x="873" y="-120.4" font-family="Times New Roman,serif" font-size="14.00"># GetHeight(): double</text>
<text text-anchor="start" x="873" y="-96.4" font-family="Times New Roman,serif" font-size="14.00"># SetHeight(value: double)</text>
<text text-anchor="start" x="873" y="-72.4" font-family="Times New Roman,serif" font-size="14.00">+ area(): double</text>
<text text-anchor="start" x="872.85" y="-48.4" font-family="Times New Roman,serif" font-size="14.00">+ draw(gr: GraphicsContext, canvas: Canvas)</text>
<text text-anchor="start" x="873" y="-24.4" font-family="Times New Roman,serif" font-size="14.00">+ drawHand(gr: GraphicsContext)</text>
<polygon fill="black" stroke="black" points="868,-161 868,-161 1134,-161 1134,-161 868,-161"/>
<polygon fill="black" stroke="black" points="868,-137 868,-137 1134,-137 1134,-137 868,-137"/>
<polygon fill="none" stroke="black" points="868,-16 868,-186 1134,-186 1134,-16 868,-16"/>
</g>
<!-- Shape1068799382 -->
<g id="node5" class="node">
<title>Shape1068799382</title>
<polygon fill="#deda61" stroke="transparent" points="1418,-465 1152,-465 1152,-223 1418,-223 1418,-465"/>
<text text-anchor="start" x="1157" y="-447.4" font-family="Times New Roman,serif" font-size="14.00">(C)Shape</text>
<text text-anchor="start" x="1157" y="-423.4" font-family="Times New Roman,serif" font-size="14.00"># &#160;&#160;colorBorder: Color [0..1]</text>
<text text-anchor="start" x="1157" y="-399.4" font-family="Times New Roman,serif" font-size="14.00"># &#160;&#160;colorFill: Color [0..1]</text>
<text text-anchor="start" x="1157" y="-375.4" font-family="Times New Roman,serif" font-size="14.00">+ &#160;&#160;height: double [1]</text>
<text text-anchor="start" x="1157" y="-351.4" font-family="Times New Roman,serif" font-size="14.00"># &#160;&#160;lineBorder: int [1]</text>
<text text-anchor="start" x="1157" y="-327.4" font-family="Times New Roman,serif" font-size="14.00">+ &#160;&#160;width: double [1]</text>
<text text-anchor="start" x="1157" y="-303.4" font-family="Times New Roman,serif" font-size="14.00"># &#160;&#160;x: double [1]</text>
<text text-anchor="start" x="1157" y="-279.4" font-family="Times New Roman,serif" font-size="14.00"># &#160;&#160;y: double [1]</text>
<text text-anchor="start" x="1157" y="-255.4" font-family="Times New Roman,serif" font-size="14.00">+ descriptor(): String</text>
<text text-anchor="start" x="1156.85" y="-231.4" font-family="Times New Roman,serif" font-size="14.00">+ draw(canvas: Canvas, gr: GraphicsContext)</text>
<polygon fill="black" stroke="black" points="1152,-440 1152,-440 1418,-440 1418,-440 1152,-440"/>
<polygon fill="black" stroke="black" points="1152,-272 1152,-272 1418,-272 1418,-272 1152,-272"/>
<polygon fill="none" stroke="black" points="1152,-223 1152,-465 1418,-465 1418,-223 1152,-223"/>
</g>
<!-- Shape1068799382&#45;&gt;Angle1068799382 -->
<g id="edge7" class="edge">
<title>Shape1068799382&#45;&gt;Angle1068799382</title>
<path fill="none" stroke="black" d="M1141.92,-320.4C866.8,-276.95 291,-186 291,-186 291,-186 248.53,-160.88 210.04,-138.11"/>
<polygon fill="none" stroke="black" points="1141.55,-323.89 1151.98,-321.99 1142.64,-316.97 1141.55,-323.89"/>
</g>
<!-- Shape1068799382&#45;&gt;Circle1068799382 -->
<g id="edge8" class="edge">
<title>Shape1068799382&#45;&gt;Circle1068799382</title>
<path fill="none" stroke="black" d="M1141.81,-311.34C934.42,-265.48 575,-186 575,-186 575,-186 532.53,-160.88 494.04,-138.11"/>
<polygon fill="none" stroke="black" points="1141.35,-314.82 1151.87,-313.56 1142.86,-307.99 1141.35,-314.82"/>
</g>
<!-- Shape1068799382&#45;&gt;Pentagon1068799382 -->
<g id="edge9" class="edge">
<title>Shape1068799382&#45;&gt;Pentagon1068799382</title>
<path fill="none" stroke="black" d="M1142.36,-290.43C1018.55,-244.8 859,-186 859,-186 859,-186 816.53,-160.88 778.04,-138.11"/>
<polygon fill="none" stroke="black" points="1141.37,-293.8 1151.96,-293.97 1143.79,-287.23 1141.37,-293.8"/>
</g>
<!-- Shape1068799382&#45;&gt;Rectangle1068799382 -->
<g id="edge10" class="edge">
<title>Shape1068799382&#45;&gt;Rectangle1068799382</title>
<path fill="none" stroke="black" d="M1144.02,-223.37C1129.27,-210.85 1114.5,-198.32 1100.36,-186.32"/>
<polygon fill="none" stroke="black" points="1141.84,-226.11 1151.73,-229.91 1146.37,-220.77 1141.84,-226.11"/>
</g>
<!-- Square1068799382 -->
<g id="node6" class="node">
<title>Square1068799382</title>
<polygon fill="#deda61" stroke="transparent" points="1418,-138 1152,-138 1152,-64 1418,-64 1418,-138"/>
<text text-anchor="start" x="1157" y="-120.4" font-family="Times New Roman,serif" font-size="14.00">(C)Square</text>
<text text-anchor="start" x="1157" y="-96.4" font-family="Times New Roman,serif" font-size="14.00">+ descriptor(): String</text>
<text text-anchor="start" x="1156.85" y="-72.4" font-family="Times New Roman,serif" font-size="14.00">+ draw(canvas: Canvas, gr: GraphicsContext)</text>
<polygon fill="black" stroke="black" points="1152,-113 1152,-113 1418,-113 1418,-113 1152,-113"/>
<polygon fill="none" stroke="black" points="1152,-64 1152,-138 1418,-138 1418,-64 1152,-64"/>
</g>
<!-- Shape1068799382&#45;&gt;Square1068799382 -->
<g id="edge11" class="edge">
<title>Shape1068799382&#45;&gt;Square1068799382</title>
<path fill="none" stroke="black" d="M1285,-212.73C1285,-185.29 1285,-158.54 1285,-138.21"/>
<polygon fill="none" stroke="black" points="1281.5,-212.85 1285,-222.85 1288.5,-212.85 1281.5,-212.85"/>
</g>
<!-- Straight1068799382 -->
<g id="node7" class="node">
<title>Straight1068799382</title>
<polygon fill="#deda61" stroke="transparent" points="1703.5,-138 1436.5,-138 1436.5,-64 1703.5,-64 1703.5,-138"/>
<text text-anchor="start" x="1442" y="-120.4" font-family="Times New Roman,serif" font-size="14.00">(C)Straight</text>
<text text-anchor="start" x="1442" y="-96.4" font-family="Times New Roman,serif" font-size="14.00">+ descriptor(): String</text>
<text text-anchor="start" x="1441.57" y="-72.4" font-family="Times New Roman,serif" font-size="14.00">+ draw(canvas: Canvas, gc: GraphicsContext)</text>
<polygon fill="black" stroke="black" points="1437,-113 1437,-113 1704,-113 1704,-113 1437,-113"/>
<polygon fill="none" stroke="black" points="1436.5,-64 1436.5,-138 1703.5,-138 1703.5,-64 1436.5,-64"/>
</g>
<!-- Shape1068799382&#45;&gt;Straight1068799382 -->
<g id="edge12" class="edge">
<title>Shape1068799382&#45;&gt;Straight1068799382</title>
<path fill="none" stroke="black" d="M1426.18,-223.62C1463.04,-192.45 1500.01,-161.19 1527.24,-138.16"/>
<polygon fill="none" stroke="black" points="1423.7,-221.13 1418.32,-230.26 1428.22,-226.48 1423.7,-221.13"/>
</g>
<!-- Triangle1068799382 -->
<g id="node8" class="node">
<title>Triangle1068799382</title>
<polygon fill="#deda61" stroke="transparent" points="1988.5,-138 1721.5,-138 1721.5,-64 1988.5,-64 1988.5,-138"/>
<text text-anchor="start" x="1727" y="-120.4" font-family="Times New Roman,serif" font-size="14.00">(C)Triangle</text>
<text text-anchor="start" x="1727" y="-96.4" font-family="Times New Roman,serif" font-size="14.00">+ descriptor(): String</text>
<text text-anchor="start" x="1726.57" y="-72.4" font-family="Times New Roman,serif" font-size="14.00">+ draw(canvas: Canvas, gc: GraphicsContext)</text>
<polygon fill="black" stroke="black" points="1722,-113 1722,-113 1989,-113 1989,-113 1722,-113"/>
<polygon fill="none" stroke="black" points="1721.5,-64 1721.5,-138 1988.5,-138 1988.5,-64 1721.5,-64"/>
</g>
<!-- Shape1068799382&#45;&gt;Triangle1068799382 -->
<g id="edge13" class="edge">
<title>Shape1068799382&#45;&gt;Triangle1068799382</title>
<path fill="none" stroke="black" d="M1427.73,-290.64C1552.2,-244.98 1713,-186 1713,-186 1713,-186 1755.47,-160.88 1793.96,-138.11"/>
<polygon fill="none" stroke="black" points="1426.26,-287.46 1418.08,-294.18 1428.67,-294.03 1426.26,-287.46"/>
</g>
<!-- HelloController537999332 -->
<g id="node9" class="node">
<title>HelloController537999332</title>
<polygon fill="#deda61" stroke="transparent" points="2005.5,-1427.8 1680.5,-1427.8 1680.5,-753.8 2005.5,-753.8 2005.5,-1427.8"/>
<text text-anchor="start" x="1686" y="-1410.2" font-family="Times New Roman,serif" font-size="14.00">(C)HelloController</text>
<text text-anchor="start" x="1686" y="-1386.2" font-family="Times New Roman,serif" font-size="14.00">&#45; &#160;&#160;borderCount: TextField [0..1]</text>
<text text-anchor="start" x="1686" y="-1362.2" font-family="Times New Roman,serif" font-size="14.00">&#45; &#160;&#160;borderPicker: ColorPicker [0..1]</text>
<text text-anchor="start" x="1686" y="-1338.2" font-family="Times New Roman,serif" font-size="14.00">&#45; &#160;&#160;canvas: Canvas [0..1]</text>
<text text-anchor="start" x="1686" y="-1314.2" font-family="Times New Roman,serif" font-size="14.00"># &#160;&#160;clearbutton: Button [0..1]</text>
<text text-anchor="start" x="1686" y="-1290.2" font-family="Times New Roman,serif" font-size="14.00">&#45; &#160;&#160;fIleManager: FIleManagerShape [0..1]</text>
<text text-anchor="start" x="1686" y="-1266.2" font-family="Times New Roman,serif" font-size="14.00">&#45; &#160;&#160;fillPicker: ColorPicker [0..1]</text>
<text text-anchor="start" x="1686" y="-1242.2" font-family="Times New Roman,serif" font-size="14.00">+ &#160;&#160;flowpane: FlowPane [0..1]</text>
<text text-anchor="start" x="1686" y="-1218.2" font-family="Times New Roman,serif" font-size="14.00"># &#160;&#160;gc: GraphicsContext [0..1]</text>
<text text-anchor="start" x="1686" y="-1194.2" font-family="Times New Roman,serif" font-size="14.00">&#45; &#160;&#160;heightCount: TextField [0..1]</text>
<text text-anchor="start" x="1686" y="-1170.2" font-family="Times New Roman,serif" font-size="14.00">&#45; &#160;&#160;info: Label [0..1]</text>
<text text-anchor="start" x="1686" y="-1146.2" font-family="Times New Roman,serif" font-size="14.00">&#45; &#160;&#160;initialValue: int [1]</text>
<text text-anchor="start" x="1686" y="-1122.2" font-family="Times New Roman,serif" font-size="14.00"># &#160;&#160;openBut: Button [0..1]</text>
<text text-anchor="start" x="1686" y="-1098.2" font-family="Times New Roman,serif" font-size="14.00"># &#160;&#160;retBut: Button [0..1]</text>
<text text-anchor="start" x="1686" y="-1074.2" font-family="Times New Roman,serif" font-size="14.00"># &#160;&#160;saveBut: Button [0..1]</text>
<text text-anchor="start" x="1686" y="-1050.2" font-family="Times New Roman,serif" font-size="14.00"># &#160;&#160;shape: Shape [0..1]</text>
<text text-anchor="start" x="1686" y="-1026.2" font-family="Times New Roman,serif" font-size="14.00"># &#160;&#160;shapeFactory: ShapeFactory [0..1]</text>
<text text-anchor="start" x="1686" y="-1002.2" font-family="Times New Roman,serif" font-size="14.00">+ &#160;&#160;spinner: Spinner&lt;Integer&gt; [0..1]</text>
<text text-anchor="start" x="1686" y="-978.2" font-family="Times New Roman,serif" font-size="14.00">&#45; &#160;&#160;stack_shapes: Repository [0..1]</text>
<text text-anchor="start" x="1686" y="-954.2" font-family="Times New Roman,serif" font-size="14.00">&#45; &#160;&#160;txtCount: TextField [0..1]</text>
<text text-anchor="start" x="1686" y="-930.2" font-family="Times New Roman,serif" font-size="14.00">&#45; &#160;&#160;widthCount: TextField [0..1]</text>
<text text-anchor="start" x="1686" y="-906.2" font-family="Times New Roman,serif" font-size="14.00">&#45; InitShapes()</text>
<text text-anchor="start" x="1685.79" y="-882.2" font-family="Times New Roman,serif" font-size="14.00">+ initialize(url: URL, resourceBundle: ResourceBundle)</text>
<text text-anchor="start" x="1686" y="-858.2" font-family="Times New Roman,serif" font-size="14.00"># onClear()</text>
<text text-anchor="start" x="1686" y="-834.2" font-family="Times New Roman,serif" font-size="14.00"># onMouseClicked(event: MouseEvent)</text>
<text text-anchor="start" x="1686" y="-810.2" font-family="Times New Roman,serif" font-size="14.00">+ onOpen(actionEvent: ActionEvent)</text>
<text text-anchor="start" x="1686" y="-786.2" font-family="Times New Roman,serif" font-size="14.00">+ onReturn(actionEvent: ActionEvent)</text>
<text text-anchor="start" x="1686" y="-762.2" font-family="Times New Roman,serif" font-size="14.00">+ onSave(actionEvent: ActionEvent)</text>
<polygon fill="black" stroke="black" points="1681,-1402.8 1681,-1402.8 2006,-1402.8 2006,-1402.8 1681,-1402.8"/>
<polygon fill="black" stroke="black" points="1681,-922.8 1681,-922.8 2006,-922.8 2006,-922.8 1681,-922.8"/>
<polygon fill="none" stroke="black" points="1680.5,-753.8 1680.5,-1427.8 2005.5,-1427.8 2005.5,-753.8 1680.5,-753.8"/>
</g>
<!-- HelloController537999332&#45;&gt;Shape1068799382 -->
<g id="edge4" class="edge">
<title>HelloController537999332&#45;&gt;Shape1068799382</title>
<path fill="none" stroke="black" d="M1680.48,-872.87C1583.33,-743.21 1463.23,-582.89 1381.03,-473.17"/>
<polygon fill="black" stroke="black" points="1383.72,-470.94 1374.93,-465.03 1378.12,-475.13 1383.72,-470.94"/>
<text text-anchor="middle" x="1555.94" y="-610.6" font-family="Times New Roman,serif" font-size="14.00">shape</text>
<text text-anchor="middle" x="1555.94" y="-593.8" font-family="Times New Roman,serif" font-size="14.00">[0..1]</text>
</g>
<!-- FIleManagerShape310602149 -->
<g id="node10" class="node">
<title>FIleManagerShape310602149</title>
<polygon fill="#deda61" stroke="transparent" points="2120.5,-655.4 1851.5,-655.4 1851.5,-557.4 2120.5,-557.4 2120.5,-655.4"/>
<text text-anchor="start" x="1857" y="-637.8" font-family="Times New Roman,serif" font-size="14.00">(C)FIleManagerShape</text>
<text text-anchor="start" x="1856.66" y="-613.8" font-family="Times New Roman,serif" font-size="14.00">+ loadDataFromFile(file: File): Stack&lt;Shape&gt;</text>
<text text-anchor="start" x="1857" y="-589.8" font-family="Times New Roman,serif" font-size="14.00">+ saveDataToFile(stack: Stack&lt;Shape&gt;)</text>
<text text-anchor="start" x="1857" y="-565.8" font-family="Times New Roman,serif" font-size="14.00">&#45; setShapeHelper(info: String): Shape</text>
<polygon fill="black" stroke="black" points="1852,-630.4 1852,-630.4 2121,-630.4 2121,-630.4 1852,-630.4"/>
<polygon fill="none" stroke="black" points="1851.5,-557.4 1851.5,-655.4 2120.5,-655.4 2120.5,-557.4 1851.5,-557.4"/>
</g>
<!-- HelloController537999332&#45;&gt;FIleManagerShape310602149 -->
<g id="edge2" class="edge">
<title>HelloController537999332&#45;&gt;FIleManagerShape310602149</title>
<path fill="none" stroke="black" d="M1942.61,-753.77C1952.52,-720.33 1961.58,-689.78 1968.82,-665.35"/>
<polygon fill="black" stroke="black" points="1972.22,-666.19 1971.71,-655.6 1965.51,-664.2 1972.22,-666.19"/>
<text text-anchor="middle" x="1992.59" y="-717.2" font-family="Times New Roman,serif" font-size="14.00">fIleManager</text>
<text text-anchor="middle" x="1992.59" y="-700.4" font-family="Times New Roman,serif" font-size="14.00">[0..1]</text>
</g>
<!-- Repository310602149 -->
<g id="node11" class="node">
<title>Repository310602149</title>
<polygon fill="#deda61" stroke="transparent" points="1833.5,-655.4 1642.5,-655.4 1642.5,-557.4 1833.5,-557.4 1833.5,-655.4"/>
<text text-anchor="start" x="1648" y="-637.8" font-family="Times New Roman,serif" font-size="14.00">(C)Repository</text>
<text text-anchor="start" x="1647.6" y="-613.8" font-family="Times New Roman,serif" font-size="14.00">&#45; &#160;&#160;_shapes: Stack&lt;Shape&gt; [0..*]</text>
<text text-anchor="start" x="1648" y="-589.8" font-family="Times New Roman,serif" font-size="14.00">+ addShape(shape: Shape)</text>
<text text-anchor="start" x="1648" y="-565.8" font-family="Times New Roman,serif" font-size="14.00">+ popShape()</text>
<polygon fill="black" stroke="black" points="1643,-630.4 1643,-630.4 1834,-630.4 1834,-630.4 1643,-630.4"/>
<polygon fill="black" stroke="black" points="1643,-606.4 1643,-606.4 1834,-606.4 1834,-606.4 1643,-606.4"/>
<polygon fill="none" stroke="black" points="1642.5,-557.4 1642.5,-655.4 1833.5,-655.4 1833.5,-557.4 1642.5,-557.4"/>
</g>
<!-- HelloController537999332&#45;&gt;Repository310602149 -->
<g id="edge3" class="edge">
<title>HelloController537999332&#45;&gt;Repository310602149</title>
<path fill="none" stroke="black" d="M1769.86,-753.77C1762.61,-720.48 1755.99,-690.06 1750.68,-665.67"/>
<polygon fill="black" stroke="black" points="1754.04,-664.63 1748.49,-655.6 1747.2,-666.12 1754.04,-664.63"/>
<text text-anchor="middle" x="1799.54" y="-717.2" font-family="Times New Roman,serif" font-size="14.00">stack_shapes</text>
<text text-anchor="middle" x="1799.54" y="-700.4" font-family="Times New Roman,serif" font-size="14.00">[0..1]</text>
</g>
<!-- ShapeFactory572770538 -->
<g id="node12" class="node">
<title>ShapeFactory572770538</title>
<polygon fill="#deda61" stroke="transparent" points="2612.5,-369 2013.5,-369 2013.5,-319 2612.5,-319 2612.5,-369"/>
<text text-anchor="start" x="2019" y="-351.4" font-family="Times New Roman,serif" font-size="14.00">(C)ShapeFactory</text>
<text text-anchor="start" x="2018.72" y="-327.4" font-family="Times New Roman,serif" font-size="14.00">+ factoryMethod(name: String, x: double, y: double, line: int, colorborder: Color, colorfill: Color): Shape</text>
<polygon fill="black" stroke="black" points="2014,-344 2014,-344 2613,-344 2613,-344 2014,-344"/>
<polygon fill="none" stroke="black" points="2013.5,-319 2013.5,-369 2612.5,-369 2612.5,-319 2013.5,-319"/>
</g>
<!-- HelloController537999332&#45;&gt;ShapeFactory572770538 -->
<g id="edge5" class="edge">
<title>HelloController537999332&#45;&gt;ShapeFactory572770538</title>
<path fill="none" stroke="black" d="M2005.56,-881.72C2127.33,-725.85 2273,-539.4 2273,-539.4 2273,-539.4 2294.53,-434.77 2306,-379.03"/>
<polygon fill="black" stroke="black" points="2309.43,-379.73 2308.01,-369.23 2302.57,-378.32 2309.43,-379.73"/>
<text text-anchor="middle" x="2300.32" y="-610.6" font-family="Times New Roman,serif" font-size="14.00">shapeFactory</text>
<text text-anchor="middle" x="2300.32" y="-593.8" font-family="Times New Roman,serif" font-size="14.00">[0..1]</text>
</g>
<!-- FIleManagerShape310602149&#45;&gt;ShapeFactory572770538 -->
<g id="edge1" class="edge">
<title>FIleManagerShape310602149&#45;&gt;ShapeFactory572770538</title>
<path fill="none" stroke="black" d="M2023.51,-557.35C2043.4,-531.88 2063.76,-505.8 2063.76,-505.8 2063.76,-505.8 2195.25,-420.97 2267.22,-374.54"/>
<polygon fill="black" stroke="black" points="2269.18,-377.44 2275.69,-369.07 2265.39,-371.55 2269.18,-377.44"/>
<text text-anchor="middle" x="2167.62" y="-518.4" font-family="Times New Roman,serif" font-size="14.00">setShapeHelper() &#45;&gt; factoryMethod()</text>
</g>
<!-- Repository310602149&#45;&gt;Shape1068799382 -->
<g id="edge6" class="edge">
<title>Repository310602149&#45;&gt;Shape1068799382</title>
<path fill="none" stroke="black" d="M1654.38,-557.34C1590.88,-520.83 1502.05,-469.77 1427.42,-426.87"/>
<polygon fill="black" stroke="black" points="1428.8,-423.62 1418.39,-421.68 1425.31,-429.69 1428.8,-423.62"/>
<text text-anchor="middle" x="1638.16" y="-526.8" font-family="Times New Roman,serif" font-size="14.00">_shapes</text>
<text text-anchor="middle" x="1638.16" y="-510" font-family="Times New Roman,serif" font-size="14.00">[0..*]</text>
</g>
</g>
</svg>
